<?xml version="1.0" encoding="utf-8"?>
<!-- Generator: Adobe Illustrator 22.0.0, SVG Export Plug-In . SVG Version: 6.00 Build 0)  -->
<svg version="1.1" id="Layer_1" xmlns="http://www.w3.org/2000/svg" xmlns:xlink="http://www.w3.org/1999/xlink" x="0px" y="0px"
	 viewBox="0 0 534.1 155" style="enable-background:new 0 0 534.1 155;" xml:space="preserve">
<style type="text/css">
	.st0{fill:#231F20;}
	.st1{fill:#231F20;stroke:#231F20;stroke-miterlimit:10;}
	.st2{fill:#231F20;stroke:#231F20;stroke-width:0.75;stroke-miterlimit:10;}
	.st3{fill:none;}
</style>
<g>
	<polygon class="st0" points="158.7,31.1 158.8,31.4 11.8,31.4 2,0.1 149,0.1 	"/>
	<polygon class="st0" points="185.6,0.1 195.3,31.4 162.5,31.4 152.7,0.1 	"/>
	<polygon class="st0" points="258.1,0.1 248.3,31.4 215.5,31.4 225.2,0.1 	"/>
	<polygon class="st0" points="328.5,126.1 327.1,130.6 321.1,150.1 318.8,157.4 285.5,157.4 295.2,126.1 	"/>
	<polygon class="st0" points="487.3,126.1 487.3,151 462.5,157.4 351.7,157.4 357.8,137.9 358.3,136.3 355.1,126.1 	"/>
	<polygon class="st1" points="347.7,0.1 357.4,31.4 251.8,31.4 261.6,0.1 	"/>
	<polygon class="st0" points="454.7,0.1 454.7,31.4 392,31.4 401.8,0.1 	"/>
	<polygon class="st0" points="178.2,94.1 31,94.1 25.1,75.5 21,62.8 168.5,62.8 	"/>
	<polygon class="st0" points="238.5,62.8 228.8,94.1 216.4,94.1 206.7,62.8 	"/>
	<polygon class="st2" points="197.8,157.4 51.2,157.4 47.3,145.1 41.2,126.1 188.1,126.1 	"/>
	<polygon class="st0" points="291.7,126.1 282,157.4 191.2,157.4 181.9,127.3 181.5,126.1 	"/>
	<polygon class="st0" points="229.2,157.4 181.9,157.4 181.9,127.3 181.8,126.1 181.8,92.8 229.1,92.8 229.1,126.1 	"/>
	<polygon class="st0" points="357.7,31.4 348.2,61.8 346.4,67.4 313.8,67.4 313.8,66.7 313.8,37.3 313.7,36.1 313.7,31.4 	"/>
	<line class="st3" x1="191.8" y1="125.4" x2="186.2" y2="125.4"/>
	<line class="st3" x1="224.6" y1="125.4" x2="219" y2="125.4"/>
	<path class="st0" d="M433.4,0.8l-0.7,2.3l-8.8,28.4l-10,32c0,0,0,0,0,0l-0.7,2.2c0,0,0,0,0,0.1l-18.8,60.3l-0.6,2.1l-2.5,8.2
		l-0.5,1.6l-6.1,19.5h-32.8l6.1-19.5l0.5-1.6l3.2-10.2l12.7-40.8l0.5-1.6l1.6-5.2l13.9-44.5l0.8-2.6l9.8-31.3h30.5L433.4,0.8z"/>
	<polygon class="st0" points="397.7,157.4 364.9,157.4 358.8,137.9 358.3,136.3 355.1,126.1 341.8,83.5 325.6,31.4 325.4,30.8 
		318.8,9.4 333.5,4.8 348.7,0.1 358.2,30.8 358.4,31.4 374.7,83.7 375.2,85.3 387.9,126.1 391.1,136.3 391.6,137.9 	"/>
	<polygon class="st0" points="214.9,94.1 182,94.1 162.5,31.4 152.7,0.1 185.6,0.1 195.3,31.4 205.1,62.8 205.4,63.7 	"/>
	<polygon class="st0" points="258.1,0.1 248.3,31.4 238.5,62.8 228.8,94.1 195.9,94.1 203.5,69.9 203.5,69.8 205.4,63.7 205.7,62.8 
		215.5,31.4 225.2,0.1 	"/>
	<polygon class="st0" points="357,33.4 357,33.4 347.2,64.8 345.4,70.4 337.4,96.1 327.7,127.4 294.9,127.4 302.4,103.2 
		302.4,103.2 304.3,97 304.6,96.1 312.8,69.9 314.4,64.8 324.2,33.4 324.2,33.4 	"/>
	<polygon class="st2" points="84.1,157.4 51.2,157.4 47.3,145.1 41.2,126.1 41,125.4 73.9,125.4 74.1,126.1 83.8,156.4 	"/>
	<path class="st0" d="M106.7,31.4c0-0.1-0.1-0.2-0.1-0.3c-5.9-16.6-20.7-28.9-38.8-31c-1.8-0.2-3.7-0.3-5.6-0.3s-3.7,0.1-5.6,0.3
		C49.2,1,42.3,3.6,36.3,7.6C27.9,13.2,21.4,21.4,18,31.1h44.3c1.1,0,2.2,0.1,3.3,0.3C72.6,32.9,78,39.2,78,46.8
		c0,8.6-7,15.7-15.7,15.7H20.9l0.1,0.3l4,12.7c3.4,4.4,7.6,8.2,12.3,11.2c7.2,4.5,15.8,7.1,24.9,7.1c0.5,0,1,0,1.5,0
		c16.9-0.5,31.6-10,39.4-23.8c1.3-2.3,2.4-4.7,3.3-7.1c0-0.1,0.1-0.2,0.1-0.3c1.7-4.9,2.7-10.2,2.7-15.7
		C109.3,41.4,108.4,36.2,106.7,31.4z"/>
	<path class="st0" d="M122.6,94.1C119,84,112.1,75.5,103.2,69.9c-7.2-4.5-15.8-7.1-24.9-7.1c-8.2,0-15.9,2.1-22.5,5.8
		C48.1,72.7,41.7,79,37.4,86.6C36,89,34.9,91.5,34,94.1h44.3c8.7,0,15.7,7,15.7,15.7c0,8.6-7,15.7-15.7,15.7H41l0.2,0.7l6,19
		c8.3,7.3,19.1,11.7,31,11.7c1.9,0,3.7-0.1,5.5-0.3c17.8-2.1,32.6-14.1,38.6-30.4c0.1-0.2,0.2-0.4,0.3-0.7
		c1.7-4.9,2.7-10.2,2.7-15.7S124.4,99,122.6,94.1z"/>
	<rect x="259.3" y="62.8" class="st1" width="25.3" height="31.3"/>
	<path class="st0" d="M453.4,31.4h1.2v-0.1C454.2,31.3,453.8,31.4,453.4,31.4z M455.3-0.2c-2.5,0-4.9,0.1-7.3,0.3
		c-5.3,0.5-10.4,1.5-15.4,3c-16.4,4.9-30.6,15-40.6,28.4c-0.6,0.9-1.3,1.7-1.9,2.6l-13.9,44.5v0.3c0,17.8,5.9,34.1,15.7,47.3
		c0.5,0.7,1.1,1.4,1.6,2.1c13.1,16.3,32.5,27.3,54.5,29.3c2.4,0.2,4.8,0.3,7.2,0.3s4.8-0.1,7.2-0.3c8.8-0.8,17.1-3,24.8-6.4
		c27.7-12.3,47-40,47-72.3C534.3,35.1,499-0.2,455.3-0.2z M464.6,126.1h-70.3l18.8-60.3c0,0,0,0,0-0.1l0.7-2.2c0,0,0,0,0,0l10-32
		h30.8v-0.1c1.4-0.1,2.9-0.2,4.4-0.2c26.3,0,47.7,21.3,47.7,47.7C506.7,103.2,488.3,123.3,464.6,126.1z"/>
	<path class="st0" d="M464.6,126.1c-1.8,0.2-3.7,0.3-5.6,0.3s-3.8-0.1-5.6-0.3H464.6z"/>
</g>
</svg>
