<svg xmlns="http://www.w3.org/2000/svg" viewBox="0 0 68 68"><defs><style>.cls-1{fill:#231f20;}.cls-1,.cls-4{stroke:#231f20;}.cls-1,.cls-2,.cls-4{stroke-miterlimit:10;}.cls-2{font-size:17.11px;stroke:#fff;stroke-width:0.1px;font-family:CalifornianFB-Reg, Californian FB;}.cls-2,.cls-3,.cls-4{fill:#fff;}.cls-4{stroke-width:0.25px;}</style></defs><title>Asset 3</title><g id="Layer_2" data-name="Layer 2"><g id="Layer_1-2" data-name="Layer 1"><rect class="cls-1" x="0.5" y="0.5" width="67" height="67" rx="12" ry="12"/><text class="cls-2" transform="translate(6.71 39.64)"><tspan xml:space="preserve">CHA  K</tspan></text><path class="cls-3" d="M50,39.79l-.06.83s-.08,0-.11.22c0-.25-.1.24-.07-.25,0,0,0,.24-.05.23s0-.3-.07-.37-.11.17-.14-.14c-.05.19-.1.3-.14.1l0-.1,0,0s-.06-.3-.11,0c0-.05,0-.48-.1,0,0,0,0-.23-.08-.13s-.12.09-.17.33c0-.3-.16.06-.16-.26-.15.31-.21-.09-.3.32,0-.14,0-.14-.09-.13,0-.45-.07-.19-.05-.49a1.37,1.37,0,0,0-.1.47c0-.24-.07-.18-.15-.15.11-1.06-.15.22-.1-.5l-.09.35c-.08-.2-.22-.12-.33.07,0-.3-.16.11-.17-.27-.18.69-.29,0-.48.4,0,0,0-.09,0-.24-.09.23-.08.12-.15.21,0-.26,0-.7,0-.74s-.07.42-.1.59-.17-.35-.32.06a1.52,1.52,0,0,1,0-.36c-.11.47-.12,0-.11-.27a.42.42,0,0,0,0,.24c-.07.26-.14.08-.11-.15a.18.18,0,0,0,0,.12c-.1,0-.24.27-.28-.07,0,0-.06.2-.09.23-.09-.31-.21-.19-.39,0a1,1,0,0,0,0-.25s-.06.13-.09.1,0-.24,0-.25-.11.3-.16.33-.32,0-.51.22a.79.79,0,0,0-.08-.27l.2-.8s0,0,0,.12.07-.2.1-.22.12-.11,0,.14c0,0,.08-.2.1-.22.17-.07.17.25.25.32l0,.23s.16-.29.11,0c.16-.29.16-.14.32-.41,0,.17,0,0,0,.25.09-.23.17-.19.25-.31s0,.09,0,.13.18-.3.17-.08c.13,0,.3-.25.38.09,0,0,.09-.18.13-.1s0,.12,0,.24.17-.29.16-.09c0,0,0-.14.05-.24s0,.26,0,.37c0-.15.07,0,.06.13l.1-.47c.05,0,0,.18,0,.49l.08,0c.1-.3.1,0,.19-.46,0,0,0,.31.07,0a3.75,3.75,0,0,0,0,.5c.06-.27.13-.23.2-.45.07,0,.07.17.1.5.08-.37.2-.26.21,0,0,0,0-.24.06-.24s.14-.09.21-.08a1.23,1.23,0,0,0,0,.36s0-.35,0-.36c.07-.42,0,.3,0,.24a1,1,0,0,0,0-.36c.17-.13.28,0,.46-.17s0,.71.07.13c0,0,0,.15,0,.24s0,0,0-.11a1.6,1.6,0,0,0,0,.36.67.67,0,0,0,0-.24c0-.2,0-.07,0,.13,0,0,0-.15,0-.24,0,.36.14,0,.19.39a.17.17,0,0,0,0-.12c.1-.28.12.21.22.39a4.6,4.6,0,0,0,.1-.59s0,.24,0,.24.14-.19.18,0c.1-.21.15-.28.2,0h0v0h0c.06-.17.15-.18.17,0h0c.08,0,.16.08.23,0s0,.09,0,.24Zm-4.46-.34s0,0,0,.11S45.56,39.51,45.56,39.45Zm.27-.18s0,0,0,.11S45.83,39.33,45.83,39.27Zm1.56.19c0,.3,0-.41,0,0Zm.49,0h0c0,.12,0,.14,0,.24S47.87,39.68,47.88,39.42Zm.2.15c0-.07,0-.14,0,0S48.07,39.71,48.08,39.57Zm.58.45s0,0,0,.11S48.66,40.08,48.66,40Zm-2,0c0,.07,0,.15,0,.12S46.64,40,46.64,40.05ZM48,40.4c0,.08,0-.09,0-.12h0C48,40.19,48,40.36,48,40.4Z"/><polyline class="cls-3" points="44.38 27.31 43.72 39.24 45.66 39.35 46.32 27.41"/><ellipse class="cls-3" cx="40.69" cy="39.31" rx="0.32" ry="0.97" transform="translate(-0.8 77.78) rotate(-86.85)"/><ellipse class="cls-4" cx="45.35" cy="27.36" rx="0.32" ry="0.97" transform="translate(15.53 71.14) rotate(-86.85)"/></g></g></svg>