<?xml version="1.0" encoding="utf-8"?>
<!-- Generator: Adobe Illustrator 22.0.0, SVG Export Plug-In . SVG Version: 6.00 Build 0)  -->
<svg version="1.1" id="Layer_1" xmlns="http://www.w3.org/2000/svg" xmlns:xlink="http://www.w3.org/1999/xlink" x="0px" y="0px"
	 viewBox="0 0 1080 1312.6" style="enable-background:new 0 0 1080 1312.6;" xml:space="preserve">
<style type="text/css">
	.st0{stroke:#000000;stroke-width:0.75;stroke-miterlimit:10;}
	.st1{fill:#580000;}
	.st2{fill:#FFFFFF;}
	.st3{fill:#690000;stroke:#FFFFFF;stroke-width:5;stroke-miterlimit:10;}
	.st4{fill:none;stroke:#555B5F;stroke-width:10;stroke-miterlimit:10;}
	.st5{fill:#690000;}
	.st6{fill:#690000;stroke:#FFFFFF;stroke-miterlimit:10;}
	.st7{fill:#AAAAAA;stroke:#AAAAAA;stroke-width:0.75;stroke-miterlimit:10;}
	.st8{fill:#690000;stroke:#231F20;stroke-width:5;stroke-miterlimit:10;}
	.st9{fill:#F1F1F2;}
	.st10{fill:#690000;stroke:#F1F1F2;stroke-miterlimit:10;}
	.st11{fill:#231F20;stroke:#231F20;stroke-width:0.75;stroke-miterlimit:10;}
	.st12{fill:#606161;}
	.st13{fill:none;}
	.st14{font-family:'MyriadPro-Regular';}
	.st15{font-size:33.211px;}
</style>
<g>
	<polygon class="st0" points="354.7,69.8 354.9,70.3 113.4,70.3 97.4,18.9 338.9,18.9 	"/>
	<polygon class="st0" points="400.6,18.9 416.6,70.3 362.7,70.3 346.7,18.9 	"/>
	<polygon class="st0" points="520.8,18.9 504.7,70.3 450.8,70.3 466.8,18.9 	"/>
	<polygon class="st0" points="637.8,228.1 635.5,235.5 625.5,267.5 621.7,279.6 567.1,279.6 583.1,228.1 	"/>
	<polygon class="st0" points="901.5,228.1 901.5,269 860.8,279.6 678.8,279.6 688.8,247.5 689.6,244.9 684.4,228.1 	"/>
	<polygon class="st0" points="669.2,18 685.2,69.5 511.7,69.5 527.8,18 	"/>
	<polygon class="st0" points="848.4,18.9 848.4,70.3 745.5,70.3 761.5,18.9 	"/>
	<polygon class="st0" points="387.2,174.9 145.4,174.9 135.6,144.3 128.9,123.5 371.2,123.5 	"/>
	<polygon class="st0" points="488.4,123.5 472.4,174.9 452,174.9 436.1,123.5 	"/>
	<polygon class="st0" points="419.8,278.7 178.9,278.7 172.5,258.4 162.5,227.3 403.8,227.3 	"/>
	<polygon class="st0" points="576.1,228.1 560,279.6 410.9,279.6 395.6,230.1 395,228.1 	"/>
	<polygon class="st0" points="474.7,279.6 393.4,279.6 395,229.7 395,227.7 395,171.6 473.1,171.6 474.7,227.7 	"/>
	<polygon class="st0" points="686.6,70.3 670.9,120.9 667.9,130.1 612.6,130.1 612.6,129 614.2,80.3 614.2,78.2 614.2,70.3 	"/>
	<line class="st0" x1="411.6" y1="226.4" x2="401.7" y2="226.4"/>
	<line class="st0" x1="466.4" y1="226.4" x2="456.5" y2="226.4"/>
	<path class="st0" d="M812.2,19.9l-1.2,3.8l-14.6,47l-16.5,53c0,0,0,0.1,0,0.1l-1.2,3.7c0,0,0,0.1,0,0.1l-31.2,99.9l-1.1,3.4
		l-4.2,13.6l-0.8,2.7l-10.1,32.3h-54.4l10.1-32.3l0.8-2.7l5.3-17l21.1-67.6l0.8-2.7l2.7-8.6l23-73.7l1.4-4.3l16.2-51.9h50.5
		L812.2,19.9z"/>
	<polygon class="st0" points="753.1,279.6 698.6,279.6 688.5,247.2 687.6,244.5 682.3,227.5 660.3,156.7 633.3,70.3 633,69.3 
		621.9,33.8 646.5,26.1 671.6,18.3 687.5,69.3 687.9,70.3 714.9,157.1 715.7,159.8 736.8,227.5 742.2,244.5 743,247.2 	"/>
	<polygon class="st0" points="449.4,174.9 394.9,174.9 362.5,70.9 346.3,18.9 400.8,18.9 417,70.9 433.2,122.9 433.7,124.5 	"/>
	<polygon class="st0" points="520.5,18.9 504.3,70.9 488.1,122.9 471.9,174.9 417.3,174.9 429.9,134.7 429.9,134.7 433.1,124.5 
		433.5,122.9 449.8,70.9 466,18.9 	"/>
	<polygon class="st0" points="685.6,73.7 685.6,73.7 669.3,125.7 666.4,135.1 653,177.7 636.7,229.7 581.6,229.7 594.3,189.5 
		594.3,189.5 597.5,179.3 598,177.7 611.7,134.2 614.4,125.7 630.8,73.7 630.8,73.7 	"/>
	<polygon class="st0" points="232.3,280.4 177.7,280.4 171.2,259.9 161.1,228.3 160.8,227.3 215.4,227.3 215.7,228.3 231.8,278.7 	
		"/>
	<path class="st0" d="M269.1,70.9c-0.1-0.2-0.1-0.4-0.2-0.6c-9.6-27.2-34.1-47.4-63.6-50.9c-3-0.4-6.1-0.5-9.1-0.5
		c-3.1,0-6.1,0.2-9.1,0.5c-12.3,1.4-23.7,5.8-33.5,12.3c-13.8,9.2-24.5,22.7-30.1,38.6h72.8c1.8,0,3.6,0.2,5.3,0.6
		c11.7,2.4,20.4,12.8,20.4,25.2c0,14.2-11.5,25.7-25.7,25.7h-68l0.2,0.5l6.7,20.8c5.6,7.2,12.4,13.5,20.2,18.3
		c11.8,7.4,25.9,11.7,40.9,11.7c0.8,0,1.6,0,2.5,0c27.8-0.9,51.9-16.4,64.7-39.1c2.1-3.7,3.9-7.6,5.4-11.7c0.1-0.2,0.1-0.4,0.2-0.5
		c2.9-8,4.4-16.7,4.4-25.7C273.3,87.3,271.8,78.8,269.1,70.9z"/>
	<path class="st0" d="M295.5,174.9c-5.9-16.6-17.2-30.6-31.9-39.7c-11.9-7.4-25.9-11.7-40.9-11.7c-13.4,0-26,3.4-37,9.5
		c-12.6,6.9-23.1,17.2-30.2,29.7c-2.2,3.9-4.1,8-5.6,12.3h72c13.9,0,25.9,10.7,26.5,24.6c0.7,14.7-11.1,26.9-25.7,26.9h-61.2
		l0.3,1.1l9.9,31.2c13.6,12,31.4,19.2,50.9,19.2c3.1,0,6.1-0.2,9.1-0.5c29.2-3.4,53.5-23.2,63.3-49.9c0.1-0.4,0.3-0.7,0.4-1.1
		c2.9-8,4.4-16.7,4.4-25.7C299.9,191.7,298.3,183,295.5,174.9z"/>
	<rect x="523.7" y="122.6" class="st0" width="41.5" height="51.5"/>
	<path class="st0" d="M846.3,70.3h2.1v-0.2C847.7,70.2,847,70.2,846.3,70.3z M848.4,17.9c-4.1,0-8.1,0.2-12.1,0.5
		c-8.8,0.8-17.3,2.5-25.5,4.9c-27.2,8.1-50.8,24.9-67.4,47.1c-1.1,1.4-2.1,2.9-3.1,4.4l-23,73.8v0.4c0,29.5,9.7,56.7,26.1,78.6
		c0.9,1.2,1.8,2.3,2.7,3.4c21.7,27.1,53.9,45.3,90.4,48.6c3.9,0.4,7.9,0.5,11.9,0.5s8-0.2,11.9-0.5c14.5-1.3,28.4-5,41.2-10.7
		c46-20.4,78.1-66.4,78.1-120C979.5,76.7,920.8,17.9,848.4,17.9z M865,228.1H747.8l31.3-100.5c0,0,0-0.1,0-0.1l1.2-3.7
		c0,0,0,0,0-0.1L797,70.3h51.3v-0.2c2.4-0.2,4.8-0.4,7.3-0.4c43.9,0,79.4,35.6,79.4,79.4C935,189.9,904.4,223.5,865,228.1z"/>
	<path class="st0" d="M864.2,228.1c-3.1,0.4-6.2,0.5-9.3,0.5s-6.3-0.2-9.3-0.5H864.2z"/>
</g>
<g>
	<path class="st1" d="M483,502.1l-0.1-51.9l14.9-47.4l15.4-49.2l15.4-49.2h-51.8l-15.4,49.2L446,402.8l-0.5,1.5l-0.5-1.5l-15.4-49.2
		l-15.4-49.2h-51.8l15.4,49.2l30.4,97.1l0.1,51.3h-0.6h-92c0.1-0.3,0.3-0.7,0.4-1c2.7-7.6,4.2-15.8,4.2-24.4
		c0-8.5-1.5-16.8-4.2-24.4h87l-15.4-49.8h-97.1c0.1-0.2,0.1-0.3,0.2-0.5c2.7-7.5,4.1-15.6,4.1-24.1c0-8.2-1.4-16.2-3.9-23.6h83.2
		l-0.2-0.5l-15.3-49.3h-129c-2.9-0.3-5.9-0.5-8.9-0.5c-3,0-5.9,0.2-8.9,0.5H125l15.5,49.8h85.9c11.2,2.4,19.6,12.5,19.3,24.5
		c-0.3,13.3-11.8,23.7-25.1,23.7l-64.3,0l0.2,0.5l6.4,20l9.4,29.3h4h70.2c11.4,0,21.7,7.6,24.4,18.6c4,16.5-8.3,31.2-24.1,31.2h-7.4
		H188l0.3,1l9.4,29.5l6.1,19.3h48.6h155.4h14.8h10.6h49.8H567l15.5-49.8H483z"/>
	<rect x="529.5" y="402.4" class="st1" width="39.9" height="49.8"/>
	<path class="st1" d="M837.9,304c-3.9,0-7.7,0.2-11.5,0.5h-26.3h-46.3h-1.6L737,354.3l-1.3,4.1l-21.7,69.7l-2.5,8.1l-25.5-82l-0.3-1
		l-15-48.2l-1.4,0.4l-0.1-1.1H533.8l-15.3,49.8h95.7l1.7,7.3l-1.7,1.9l1.7,46.1v-2l-1.6,5.1l-13.1,41.7l-0.5,1.5l-3.1,9.8v0
		l-11.5,36.4h-0.1l-15.7,49.8h53.5l3.7-11.7l9.8-31l2.3-7.2h-0.7l15-47.7l6.7-21.2l0.4,1.1l21.3,67.8l5.1,16.3l-0.8,2.6l-9.8,31
		h18.9h30.9h20.7h79.3c3.7,0.3,7.5,0.5,11.3,0.5c3.8,0,7.6-0.2,11.3-0.5c13.8-1.2,26.9-4.7,39-10.1c43.6-19.3,73.9-62.9,73.9-113.6
		C962.1,359.6,906.5,304,837.9,304z M852.3,502.1h-17.5h-92.2l29.4-94.1c0,0,0-0.1,0-0.1l1.1-3.5c0,0,0,0,0-0.1l15.6-49.9h46.2h1.9
		v-0.2c2.2-0.2,4.5-0.3,6.8-0.3c41.1,0,74.4,33.3,74.4,74.4C917.9,466.3,889.3,497.8,852.3,502.1z"/>
</g>
<rect x="-6" y="561" class="st0" width="1086" height="323.8"/>
<g>
	<polygon class="st2" points="366.9,637.7 367,638.2 125.6,638.2 109.6,586.8 351.1,586.8 	"/>
	<polygon class="st2" points="412.8,586.8 428.8,638.2 374.9,638.2 358.8,586.8 	"/>
	<polygon class="st2" points="532.9,586.8 516.9,638.2 463,638.2 479,586.8 	"/>
	<polygon class="st2" points="650,796 647.7,803.4 637.7,835.4 633.9,847.5 579.2,847.5 595.3,796 	"/>
	<polygon class="st2" points="914.8,796 914.8,836.9 874.1,847.5 692.1,847.5 702.1,815.5 702.9,812.8 697.6,796 	"/>
	<polygon class="st2" points="681.4,587.6 697.4,639.1 523.9,639.1 539.9,587.6 	"/>
	<polygon class="st2" points="860,586.8 860,638.2 757.1,638.2 773.1,586.8 	"/>
	<polygon class="st2" points="399.3,742.9 157.5,742.9 147.8,712.2 141.1,691.4 383.4,691.4 	"/>
	<polygon class="st2" points="500.6,691.4 484.6,742.9 464.2,742.9 448.3,691.4 	"/>
	<polygon class="st2" points="431.9,848.3 191.1,848.3 184.6,828 174.7,796.8 416,796.8 	"/>
	<polygon class="st2" points="588.3,796 572.2,847.5 423.1,847.5 407.8,798 407.2,796 	"/>
	<polygon class="st2" points="486.4,847.5 406.6,847.5 408.3,797.8 406.6,795.8 406.6,739.5 484.7,739.5 486.4,795.8 	"/>
	<polygon class="st2" points="698.7,636.6 683,687.3 680.1,696.4 625.8,696.4 625.8,695.5 627.5,646.7 625.8,644.7 625.8,636.6 	"/>
	<line class="st2" x1="423.3" y1="794.3" x2="413.3" y2="794.3"/>
	<line class="st2" x1="478.1" y1="794.3" x2="468.1" y2="794.3"/>
	<path class="st2" d="M824.4,587.9l-1.2,3.8l-14.6,47l-16.5,53c0,0,0,0.1,0,0.1l-1.2,3.7c0,0,0,0.1,0,0.1l-31.2,99.9l-1.1,3.4
		l-4.2,13.6l-0.8,2.7l-10.1,32.3H689l10.1-32.3l0.8-2.7l5.3-17l21.1-67.6l0.8-2.7l2.7-8.6l23-73.7l1.4-4.3l16.2-51.9h50.5
		L824.4,587.9z"/>
	<polygon class="st2" points="765.2,847.5 710.7,847.5 700.6,815.1 699.8,812.4 694.5,795.4 672.4,724.6 645.5,638.2 645.2,637.2 
		634.1,601.7 658.6,594.1 683.8,586.2 699.7,637.2 700,638.2 727.1,725 727.9,727.7 749,795.4 754.3,812.4 755.2,815.1 	"/>
	<polygon class="st2" points="461.6,742.9 407.1,742.9 374.7,638.8 358.5,586.8 413,586.8 429.2,638.8 445.4,690.8 445.9,692.4 	"/>
	<polygon class="st2" points="533.8,586.8 517.6,638.8 501.3,690.8 485.1,742.9 430.6,742.9 443.2,702.6 443.2,702.6 446.4,692.4 
		446.8,690.8 463.1,638.8 479.3,586.8 	"/>
	<polygon class="st2" points="697.2,641.6 697.2,641.6 681.4,693.6 678.6,703 665.6,745.6 649.8,797.7 594.9,797.7 607.6,757.4 
		607.6,757.4 610.8,747.2 611.3,745.6 625,702.1 627.7,693.6 644.1,641.6 644.1,641.6 	"/>
	<polygon class="st2" points="244.5,848.3 189.9,848.3 183.3,827.8 173.3,796.3 172.9,795.2 227.5,795.2 227.9,796.3 244,846.7 	"/>
	<path class="st2" d="M281.3,638.8c-0.1-0.2-0.1-0.4-0.2-0.6c-9.6-27.2-34.1-47.4-63.6-50.9c-3-0.4-6.1-0.5-9.1-0.5
		c-3.1,0-6.1,0.2-9.1,0.5c-12.3,1.4-23.7,5.8-33.5,12.3c-13.8,9.2-24.5,22.7-30.1,38.6h72.8c1.8,0,3.6,0.2,5.3,0.6
		c11.7,2.4,20.4,12.8,20.4,25.2c0,14.2-11.5,25.7-25.7,25.7h-68l0.2,0.5l6.7,20.8c5.6,7.2,12.4,13.5,20.2,18.3
		c11.8,7.4,25.9,11.7,40.9,11.7c0.8,0,1.6,0,2.5,0c27.8-0.9,51.9-16.4,64.7-39.1c2.1-3.7,3.9-7.6,5.4-11.7c0.1-0.2,0.1-0.4,0.2-0.5
		c2.9-8,4.4-16.7,4.4-25.7C285.5,655.2,284,646.7,281.3,638.8z"/>
	<path class="st2" d="M307.6,742.9c-5.9-16.6-17.2-30.6-31.9-39.7c-11.9-7.4-25.9-11.7-40.9-11.7c-13.4,0-26,3.4-37,9.5
		c-12.6,6.9-23.1,17.2-30.2,29.7c-2.2,3.9-4.1,8-5.6,12.3h72c13.9,0,25.9,10.7,26.5,24.6c0.7,14.7-11.1,26.9-25.7,26.9h-61.2
		l0.3,1.1l9.9,31.2c13.6,12,31.4,19.2,50.9,19.2c3.1,0,6.1-0.2,9.1-0.5c29.2-3.4,53.5-23.2,63.3-49.9c0.1-0.4,0.3-0.7,0.4-1.1
		c2.9-8,4.4-16.7,4.4-25.7C312,759.6,310.5,750.9,307.6,742.9z"/>
	<rect x="535.3" y="690.5" class="st2" width="41.5" height="51.5"/>
	<path class="st2" d="M857.9,638.2h2.1V638C859.3,638.1,858.6,638.2,857.9,638.2z M861.6,586c-4.1,0-8.1,0.2-12.1,0.5
		c-8.8,0.8-17.3,2.5-25.5,4.9c-27.2,8.1-50.8,24.9-67.4,47.1c-1.1,1.4-2.1,2.9-3.1,4.4l-23,73.8v0.4c0,29.5,9.7,56.7,26.1,78.6
		c0.9,1.2,1.8,2.3,2.7,3.4c21.7,27.1,53.9,45.3,90.4,48.6c3.9,0.4,7.9,0.5,11.9,0.5s8-0.2,11.9-0.5c14.5-1.3,28.4-5,41.2-10.7
		c46-20.4,78.1-66.4,78.1-120C992.8,644.8,934.1,586,861.6,586z M876.6,796H759.5l31.3-100.5c0,0,0-0.1,0-0.1l1.2-3.7c0,0,0,0,0-0.1
		l16.6-53.3H860V638c2.4-0.2,4.8-0.3,7.3-0.3c43.9,0,79.4,35.6,79.4,79.4C946.7,757.8,916.1,791.4,876.6,796z"/>
	<path class="st2" d="M876.3,796c-3.1,0.4-6.2,0.5-9.3,0.5s-6.3-0.2-9.3-0.5H876.3z"/>
</g>
<rect x="533.7" y="883.2" class="st0" width="545.8" height="433.4"/>
<path class="st0" d="M1061.4,1124H710.1c-6.6,0-12-5.4-12-12V900.2c0-6.6,5.4-12,12-12h351.3c6.6,0,12,5.4,12,12V1112
	C1073.4,1118.6,1068,1124,1061.4,1124z"/>
<g>
	<path class="st3" d="M971.7,1080.8h-167c-6.6,0-12-5.4-12-12V966.6c0-6.6,5.4-12,12-12h167c6.6,0,12,5.4,12,12v102.2
		C983.7,1075.4,978.3,1080.8,971.7,1080.8z"/>
	<line class="st4" x1="874.9" y1="1089.9" x2="901.5" y2="1089.9"/>
	<line class="st4" x1="845" y1="1103.2" x2="931.4" y2="1103.2"/>
</g>
<g>
	<g>
		<path class="st5" d="M975.6,944.1c-3.9-6.8-9.5-0.3-16,4.1l-17.4,14c0,0-13.3,6.9-17.5,9.7c-5.6,3.7-16.6,10.4-16.6,10.4
			c0,0,0,0,0,0l1.1-11.3l1.8-15.2l4.3-16.5l3.7-13.4c1.4-7.5-0.8-15.1-8.1-17.1c-8.2-2.3-15.5,4.2-17.1,12.4l-4.1,14.3
			c0,0-3.2,10.4-4,14.5c-0.8,4-2.8,18.3-2.8,18.3l-2.3,7.6l-3.1,11.1c0,0,0,0,0,0c-1.4,0.3-2.8,0.6-4.3,0.9c0,0,0,0,0,0l-1.5-5.7
			l0,0l-4.5-13.5l0,0l-5.2-18.1l-4.8-21.9c-0.3-1.6-3-12.5-10.3-11.6c0,0,0,0,0,0l-3.9,1.1c-7.4,2.4-11.7,11.5-6.8,19.3c0,0,0,0,0,0
			l5.2,23.5l0,0c0,0,0.4,3.5,3.1,13.2c2.8,9.9,2.7,10.8,2.7,10.9c0,0,0,0,0,0l-0.8,6.8c0.1,1-1,9.9-0.7,10.9c0,0,0,0,0,0l0.2,3.2
			c-2.9,6.9-2,6.3-2.8,14c0,0-3.9,7.2-3.9,7.2c0,0-0.1-1.4,0.1,0.6c0,0,0,0,0,0l-20.3,11.3c0,0-11.4,5.8-15.6,6.7
			c-4,0.9-19.3,3.2-19.3,3.2l0,0c-6.6,2-10.5,9-8.5,15.7c2,6.6,10.1,11.6,16.8,9.6l17.8-6.2c0,0,11.3-6.6,15.5-7.2
			c9.2-1.3,19.3,0.1,19.3,0.1c1.5-0.5,9.6,6,13.7,7.8c5,2.2,21.6-3.6,27.1-3.4c13.6,0.5,16.8,8.3,28.9,2
			c11.8-6.1,26.5-27.4,22.7-39.9c0,0,0,0,0,0l19.7,6.4l16.1,9.6l5,5.8c6.6,2.1,15.4,2.8,17.4-3.8s-0.6-10.4-7.2-12.4
			c0,0-0.6-5.2-9.8-8.1c-4.5-1.4-10.2-8.1-15.4-9.9c-12.3-4.3-25-5.5-31.2-10c-1.7-1.3-0.2-6.3,1.2-8.5c1.2-1.9,4.1-6.3,4.1-6.3
			l16.9-11.4l16.6-11.2C976.7,963.5,979.1,950.1,975.6,944.1z"/>
		<g>
			<path class="st2" d="M976.5,943.5c-5.2-7.7-13,0.2-18.2,4.1c-5.2,4-10.2,8.2-15.3,12.4c-4.4,3.5-10.8,6-16,9.1
				c-6.5,3.8-13.5,7.7-19.5,12.2c0.6,0.3,1.1,0.6,1.7,1c1-10.7,1.6-21.6,4.2-31.7c1.4-5.5,2.8-10.9,4.3-16.3
				c1.9-6.7,4.5-14,0.8-20.7c-4.5-8.2-15.6-8-21.5-1.6c-4.7,5.1-5.8,13.6-7.6,20c-1.7,5.9-3.7,11.7-4.9,17.7
				c-1.3,6.4-1.5,13.2-3.1,19.5c-0.6,2.4-1.5,4.8-2.1,7.2c-0.4,1.6-0.9,3.1-1.3,4.7c-0.3,1.1-0.6,4.4-1.4,5.2c0.1,0-2.1,0.2-2.2,0.2
				c-0.6-0.1,0.4,1.6-0.4-0.4c-0.6-1.3-0.7-2.9-1.1-4.2c-0.8-2.6-1.7-5.1-2.6-7.7c-3-9.1-5.9-18.4-8-27.7c-1.3-6-2.5-12.1-4-18.1
				c-1.2-5.1-4.1-12.4-10.3-12.5c-6.8-0.1-13.5,5.4-14.7,12.1c-0.7,3.9,1.1,7.2,1.9,10c0.8,2.7,1.2,5.5,1.8,8.3
				c1.1,5,2.7,11.6,3.5,15.8c1,5.3,2.5,10.5,4,15.8c0.5,1.8,1.8,6.4,1.8,7.3c0,6.2-1.3,12.6-1.5,18.8c-0.1,4.3-2.1,8.5-2.4,13
				c-0.2,3.7-2.2,6.5-4,9.7c0.7,0.2,1.4,0.4,2.1,0.6c0-0.2,0-0.3,0-0.5c-0.7,0.1-1.5,0.2-2.2,0.3c0,0,1.1-0.3,0.1,0.1
				c-0.4,0.2-0.9,0.5-1.3,0.7c-1.8,1-3.5,2-5.3,2.9c-3.7,2-7.4,4.1-11.1,6.1c-5.7,3.2-11.9,6.5-18.3,8c-4.5,1-9.2,1.6-13.8,2.3
				c-3.2,0.5-5.9,0.7-8.6,2.6c-8.7,6.2-6.8,18.7,1.9,23.8c7.5,4.4,14.8,0.3,22.2-2.2c6.4-2.2,11.8-5.6,18-8.2
				c6.1-2.6,13.4-2.1,19.9-1.5c4.5,0.4,7.3,2.5,11.1,4.9c3.6,2.3,6.2,3.9,10.5,3.6c5.2-0.3,10.3-1.8,15.4-2.8
				c6.1-1.3,11.5-0.9,17.5,1.1c4.4,1.5,8.5,3,13.2,1.9c10.5-2.4,18.9-12.5,24-21.4c2.6-4.5,4.8-9.6,5.4-14.9
				c0.1-1.3,0.8-5.2-0.3-6.2c-0.2-0.2-1.7-0.2-0.9,0.6c0.3,0.4,1.7,0.5,2.1,0.7c5.6,1.8,12.8,3.5,17.5,5.9c3.4,1.8,6.7,4,10.1,6
				c2.4,1.4,4.6,2.5,6.2,4.4c3.1,3.6,4.2,5,9.1,5.7c3.8,0.6,8.5,0.7,11.5-2.1c2.8-2.5,3.8-7.5,2.6-11.1c-0.5-1.5-1.5-2.7-2.6-3.7
				c-1.3-1.1-4.1-1.7-4.8-2.4c-0.6-0.6-0.9-2.1-1.5-2.9c-1.1-1.5-2.8-2.8-4.4-3.7c-2.8-1.6-5.8-2.2-8.4-4.1
				c-2.7-1.9-5.1-4.1-7.9-5.9c-6-3.8-14-4.8-20.8-6.6c-3.3-0.8-6.6-1.7-9.7-3c-5-2.1-4.5-5.7-2-9.9c1.9-3.3,2.8-4.9,5.4-6.7
				c3.4-2.3,6.8-4.6,10.2-6.9c4.8-3.2,9.6-6.5,14.4-9.7c6.5-4.4,11.5-7.7,13.1-16.1C978.7,952.4,978.6,947.7,976.5,943.5
				c-0.7-1.3-2.6-0.2-1.9,1.1c3,5.9,1.6,15.8-3,20.7c-2.2,2.3-5.4,3.9-8,5.6c-5.2,3.5-10.3,7-15.5,10.5c-3.4,2.3-7,4.4-10.3,7
				c-2.2,1.7-3.6,4.3-5,6.7c-1.8,2.9-4.2,7.9-1.3,10.8c4.2,4.1,13.1,5.1,18.5,6.4c4.9,1.2,10.5,2.2,15,4.6c3.3,1.8,6,4.5,9,6.6
				c4,2.8,12.5,3.9,13.4,9.7c0.1,0.4,0.4,0.7,0.8,0.8c3,1,6.2,2.5,6.9,5.9c0.9,3.9-1.3,8-5.1,9.2c-3.9,1.2-9.9,0.6-12.6-2.6
				c-3.7-4.3-7.2-6.2-12.1-9.1c-3.7-2.2-6.9-4.3-11-5.6c-5.5-1.8-11.1-3.6-16.6-5.4c-0.4-0.1-0.8,0-1.1,0.3c0,0,0,0,0,0
				c-0.3,0.3-0.4,0.7-0.3,1.1c3.1,11.8-6.5,25.3-14.5,32.9c-4.4,4.3-10.5,8.6-16.9,8c-5.3-0.5-10.2-3.4-15.6-4.1
				c-9.7-1.3-19,4.9-28.5,3.5c-4.8-0.7-8.8-5.2-13-7.3c-2.6-1.3-5.5-1.3-8.4-1.4c-5.7-0.3-11.9-0.7-17.3,1.4
				c-3.9,1.5-7.6,3.7-11.3,5.7c-4.7,2.5-11.5,4.4-17,6.2c-5.7,1.9-11.9,0.3-15.5-5c-4.3-6.3-1.3-15.6,6.3-17.6
				c7.3-1.9,15.2-1.5,22.3-4.3c6.5-2.5,12.5-5.7,18.6-9.1c4-2.2,8-4.4,12-6.7c1.7-0.9,3.6-1.4,2.8-3.7c-0.4-1.2-2.2-1-2.2,0.3
				c0,0.2,0,0.3,0,0.5c0.1,1.1,1.5,1.6,2.1,0.6c1.2-2.3,3-4.7,3.8-7.1c1.1-3.4,0.4-7.2,1.5-10.6c1-3.2,1.3-4.3,1.2-7.6
				c-0.1-3.4,0.5-6.9,0.8-10.2c0.4-4.3,1.1-6.8,0.2-10.5c-1.7-7.1-3.9-14.1-5.3-21.2c-0.8-4.2-2.3-10.7-3.4-15.7
				c-1.6-7.2-6.2-16.2-0.5-22.3c2-2.1,6.4-4.3,9.5-4.2c4.8,0.2,7,6.2,8,10.1c1.4,5.4,2.4,10.9,3.6,16.4c1.9,8.6,4.3,17.1,7,25.5
				c1.7,5.2,3.6,10.4,5,15.7c0.5,1.9,0.3,2.7,2,3.2c0.8,0.2,4.2-0.6,4.8-1.2c0.5-0.4,0.5-1.3,0.7-1.9c1.7-5.3,3.3-11,4.7-16.4
				c1.5-6,1.8-12.5,2.9-18.6c1.1-5.7,3-11.3,4.6-16.8c1.9-6.6,3.1-16.6,8.3-21.4c7.3-6.6,17.9-2,18.6,7.6c0.3,4-1,7.7-2,11.5
				c-1.6,5.8-3.1,11.5-4.6,17.3c-2.8,10.8-3.5,22.1-4.5,33.2c-0.1,0.8,1,1.5,1.7,1c5.4-4,11.6-7.3,17.3-10.8
				c5.4-3.4,11.5-5.8,16.9-9.3c4-2.6,7.5-6.1,11.2-9c2-1.6,4-3.3,6-4.9c3.3-2.5,10.9-10.1,14.6-4.6
				C975.4,945.9,977.4,944.8,976.5,943.5z"/>
		</g>
	</g>
	<path class="st6" d="M875.4,1021.3c1.7,4.7,3.3,9.5,5,14.2c0.9,2.5,1.8,5.1,2.2,7.7c0.6,3.3,0.4,6.7,0.3,10.1"/>
	<path class="st6" d="M905.1,1022.6c-2.7-0.3-4.5,2.6-5.6,5c-1.8,3.8-3.7,7.6-5.5,11.4"/>
	<path class="st6" d="M955.6,968c-0.4,2.6,1.3,6.4,2.6,8.8"/>
	<path class="st6" d="M935.6,983.7c0.8,1.7,2.3,3.8,4.6,5.1"/>
	<path class="st6" d="M895.7,930.1c5.9,7.8,13.5,4.6,14.4,3.2"/>
	<path class="st6" d="M890.8,960.1c2.2,2.2,6.5,4.8,12.6,3"/>
	<path class="st6" d="M836.3,1030.4c3.6-1.4,7.2-2.9,10.8-4.3c3.9-1.5,7.8-3.1,11.9-4"/>
	<path class="st6" d="M970.5,1034.4c-1,1.8-1.8,3.8-2.3,5.8"/>
	<path class="st6" d="M952.7,1026.5c-0.1,2.1-0.2,4.2-0.1,6.3c0.4,0.1,0.8,0.1,1.2,0.2"/>
	<path class="st6" d="M804,1050.8c1.7,4.8,1.9,9.8,0.4,14.6"/>
	<path class="st6" d="M841.3,941.2c2.6,0,6,0,8.8-1.6"/>
	<path class="st6" d="M845.1,969.2c2.9,0,6.9,0,10.1-1.6"/>
</g>
<rect x="-2.7" y="883.2" class="st7" width="535.2" height="433.4"/>
<g>
	<g>
		<path class="st8" d="M209.5,1067.5h-167c-6.6,0-12-5.4-12-12V953.3c0-6.6,5.4-12,12-12h167c6.6,0,12,5.4,12,12v102.2
			C221.5,1062.1,216.1,1067.5,209.5,1067.5z"/>
		<line class="st4" x1="112.7" y1="1076.6" x2="137.6" y2="1076.6"/>
		<line class="st4" x1="82.8" y1="1089.9" x2="169.2" y2="1089.9"/>
	</g>
	<g>
		<g>
			<path class="st5" d="M213.6,930.6c-3.9-6.8-9.5-0.3-16,4.1l-17.4,14c0,0-13.3,6.9-17.5,9.7c-5.6,3.7-16.6,10.4-16.6,10.4
				c0,0,0,0,0,0l1.1-11.3l1.8-15.2l4.3-16.5l3.7-13.4c1.4-7.5-0.8-15.1-8.1-17.1c-8.2-2.3-15.5,4.2-17.1,12.4l-4.1,14.3
				c0,0-3.2,10.4-4,14.5c-0.8,4-2.8,18.3-2.8,18.3l-2.3,7.6l-3.1,11.1c0,0,0,0,0,0c-1.4,0.3-2.8,0.6-4.3,0.9c0,0,0,0,0,0l-1.5-5.7
				c0,0,0,0,0,0l-4.5-13.5c0,0,0,0,0,0L100,937l-4.8-21.9c-0.3-1.6-3-12.5-10.3-11.6c0,0,0,0,0,0l-3.9,1.1
				c-7.4,2.4-11.7,11.5-6.8,19.3c0,0,0,0,0,0l5.2,23.5c0,0,0,0,0,0c0,0,0.4,3.5,3.1,13.2c2.8,9.9,2.7,10.8,2.7,10.9c0,0,0,0,0,0
				l-0.8,6.8c0.1,1-1,9.9-0.7,10.9c0,0,0,0,0,0l0.2,3.2c-2.9,6.9-2,6.3-2.8,14c0,0-3.9,7.2-3.9,7.2c0,0-0.1-1.4,0.1,0.6c0,0,0,0,0,0
				l-20.3,11.3c0,0-11.4,5.8-15.6,6.7c-4,0.9-19.3,3.2-19.3,3.2l0,0c-6.6,2-10.5,9-8.5,15.7c2,6.6,10.1,11.6,16.8,9.6l17.8-6.2
				c0,0,11.3-6.6,15.5-7.2c9.2-1.3,19.3,0.1,19.3,0.1c1.5-0.5,9.6,6,13.7,7.8c5,2.2,21.6-3.6,27.1-3.4c13.6,0.5,16.8,8.3,28.9,2
				c11.8-6.1,26.5-27.4,22.7-39.9c0,0,0,0,0,0l19.7,6.4l16.1,9.6l5,5.8c6.6,2.1,15.4,2.8,17.4-3.8s-0.6-10.4-7.2-12.4
				c0,0-0.6-5.2-9.8-8.1c-4.5-1.4-10.2-8.1-15.4-9.9c-12.3-4.3-25-5.5-31.2-10c-1.7-1.3-0.2-6.3,1.2-8.5c1.2-1.9,4.1-6.3,4.1-6.3
				l16.9-11.4l16.6-11.2C214.7,949.9,217.1,936.6,213.6,930.6z"/>
			<g>
				<path class="st9" d="M214.6,930c-5.2-7.7-13,0.2-18.2,4.1c-5.2,4-10.2,8.2-15.3,12.4c-4.4,3.5-10.8,6-16,9.1
					c-6.5,3.8-13.5,7.7-19.5,12.2c0.6,0.3,1.1,0.6,1.7,1c1-10.7,1.6-21.6,4.2-31.7c1.4-5.5,2.8-10.9,4.3-16.3
					c1.9-6.7,4.5-14,0.8-20.7c-4.5-8.2-15.6-8-21.5-1.6c-4.7,5.1-5.8,13.6-7.6,20c-1.7,5.9-3.7,11.7-4.9,17.7
					c-1.3,6.4-1.5,13.2-3.1,19.5c-0.6,2.4-1.5,4.8-2.1,7.2c-0.4,1.6-0.9,3.1-1.3,4.7c-0.3,1.1-0.6,4.4-1.4,5.2
					c0.1,0-2.1,0.2-2.2,0.2c-0.6-0.1,0.4,1.6-0.4-0.4c-0.6-1.3-0.7-2.9-1.1-4.2c-0.8-2.6-1.7-5.1-2.6-7.7c-3-9.1-5.9-18.4-8-27.7
					c-1.3-6-2.5-12.1-4-18.1c-1.2-5.1-4.1-12.4-10.3-12.5c-6.8-0.1-13.5,5.4-14.7,12.1c-0.7,3.9,1.1,7.2,1.9,10
					c0.8,2.7,1.2,5.5,1.8,8.3c1.1,5,2.7,11.6,3.5,15.8c1,5.3,2.5,10.5,4,15.8c0.5,1.8,1.8,6.4,1.8,7.3c0,6.2-1.3,12.6-1.5,18.8
					c-0.1,4.3-2.1,8.5-2.4,13c-0.2,3.7-2.2,6.5-4,9.7c0.7,0.2,1.4,0.4,2.1,0.6c0-0.2,0-0.3,0-0.5c-0.7,0.1-1.5,0.2-2.2,0.3
					c0,0,1.1-0.3,0.1,0.1c-0.4,0.2-0.9,0.5-1.3,0.7c-1.8,1-3.5,2-5.3,2.9c-3.7,2-7.4,4.1-11.1,6.1c-5.7,3.2-11.9,6.5-18.3,8
					c-4.5,1-9.2,1.6-13.8,2.3c-3.2,0.5-5.9,0.7-8.6,2.6c-8.7,6.2-6.8,18.7,1.9,23.8c7.5,4.4,14.8,0.3,22.2-2.2
					c6.4-2.2,11.8-5.6,18-8.2c6.1-2.6,13.4-2.1,19.9-1.5c4.5,0.4,7.3,2.5,11.1,4.9c3.6,2.3,6.2,3.9,10.5,3.6
					c5.2-0.3,10.3-1.8,15.4-2.8c6.1-1.3,11.5-0.9,17.5,1.1c4.4,1.5,8.5,3,13.2,1.9c10.5-2.4,18.9-12.5,24-21.4
					c2.6-4.5,4.8-9.6,5.4-14.9c0.1-1.3,0.8-5.2-0.3-6.2c-0.2-0.2-1.7-0.2-0.9,0.6c0.3,0.4,1.7,0.5,2.1,0.7
					c5.6,1.8,12.8,3.5,17.5,5.9c3.4,1.8,6.7,4,10.1,6c2.4,1.4,4.6,2.5,6.2,4.4c3.1,3.6,4.2,5,9.1,5.7c3.8,0.6,8.5,0.7,11.5-2.1
					c2.8-2.5,3.8-7.5,2.6-11.1c-0.5-1.5-1.5-2.7-2.6-3.7c-1.3-1.1-4.1-1.7-4.8-2.4c-0.6-0.6-0.9-2.1-1.5-2.9
					c-1.1-1.5-2.8-2.8-4.4-3.7c-2.8-1.6-5.8-2.2-8.4-4.1c-2.7-1.9-5.1-4.1-7.9-5.9c-6-3.8-14-4.8-20.8-6.6c-3.3-0.8-6.6-1.7-9.7-3
					c-5-2.1-4.5-5.7-2-9.9c1.9-3.3,2.8-4.9,5.4-6.7c3.4-2.3,6.8-4.6,10.2-6.9c4.8-3.2,9.6-6.5,14.4-9.7c6.5-4.4,11.5-7.7,13.1-16.1
					C216.7,938.9,216.6,934.1,214.6,930c-0.7-1.3-2.6-0.2-1.9,1.1c3,5.9,1.6,15.8-3,20.7c-2.2,2.3-5.4,3.9-8,5.6
					c-5.2,3.5-10.3,7-15.5,10.5c-3.4,2.3-7.1,4.4-10.3,7c-2.2,1.7-3.6,4.3-5,6.7c-1.8,2.9-4.2,7.9-1.3,10.8
					c4.2,4.1,13.1,5.1,18.5,6.4c4.9,1.2,10.5,2.2,15,4.6c3.3,1.8,6,4.5,9,6.6c4,2.8,12.5,3.9,13.4,9.7c0.1,0.4,0.4,0.7,0.8,0.8
					c3,1,6.2,2.5,6.9,5.9c0.9,3.9-1.3,8-5.1,9.2c-3.9,1.2-9.9,0.6-12.6-2.6c-3.7-4.3-7.2-6.2-12.1-9.1c-3.7-2.2-6.9-4.3-11-5.6
					c-5.5-1.8-11.1-3.6-16.6-5.4c-0.4-0.1-0.8,0-1.1,0.3c0,0,0,0,0,0c-0.3,0.3-0.4,0.7-0.3,1.1c3.1,11.8-6.5,25.3-14.5,32.9
					c-4.4,4.3-10.5,8.6-16.9,8c-5.3-0.5-10.2-3.4-15.6-4.1c-9.7-1.3-19,4.9-28.5,3.5c-4.8-0.7-8.8-5.2-13-7.3
					c-2.6-1.3-5.5-1.3-8.4-1.4c-5.7-0.3-11.9-0.7-17.3,1.4c-3.9,1.5-7.6,3.7-11.3,5.7c-4.7,2.5-11.5,4.4-17,6.2
					c-5.7,1.9-11.9,0.3-15.5-5c-4.3-6.3-1.3-15.6,6.3-17.6c7.3-1.9,15.2-1.5,22.3-4.3c6.5-2.5,12.5-5.7,18.6-9.1c4-2.2,8-4.4,12-6.7
					c1.7-0.9,3.6-1.4,2.8-3.7c-0.4-1.2-2.2-1-2.2,0.3c0,0.2,0,0.3,0,0.5c0.1,1.1,1.5,1.6,2.1,0.6c1.2-2.3,3-4.7,3.8-7.1
					c1.1-3.4,0.4-7.2,1.5-10.6c1-3.2,1.3-4.3,1.2-7.6c-0.1-3.4,0.5-6.9,0.8-10.2c0.4-4.3,1.1-6.8,0.2-10.5
					c-1.7-7.1-3.9-14.1-5.3-21.2c-0.8-4.2-2.3-10.7-3.4-15.7c-1.6-7.2-6.2-16.2-0.5-22.3c2-2.1,6.4-4.3,9.5-4.2
					c4.8,0.2,7,6.2,8,10.1c1.4,5.4,2.4,10.9,3.6,16.4c1.9,8.6,4.3,17.1,7,25.5c1.7,5.2,3.6,10.4,5,15.7c0.5,1.9,0.3,2.7,2,3.2
					c0.8,0.2,4.2-0.6,4.8-1.2c0.5-0.4,0.5-1.3,0.7-1.9c1.7-5.3,3.3-11,4.7-16.4c1.5-6,1.8-12.5,2.9-18.6c1.1-5.7,3-11.3,4.6-16.8
					c1.9-6.6,3.1-16.6,8.3-21.4c7.3-6.6,17.9-2,18.6,7.6c0.3,4-1,7.7-2,11.5c-1.6,5.8-3.1,11.5-4.6,17.3
					c-2.8,10.8-3.5,22.1-4.5,33.2c-0.1,0.8,1,1.5,1.7,1c5.4-4,11.6-7.3,17.3-10.8c5.4-3.4,11.5-5.8,16.9-9.3c4-2.6,7.5-6.1,11.2-9
					c2-1.6,4-3.3,6-4.9c3.3-2.5,10.9-10.1,14.6-4.6C213.4,932.3,215.4,931.2,214.6,930z"/>
			</g>
		</g>
		<path class="st10" d="M113.4,1007.7c1.7,4.7,3.3,9.5,5,14.2c0.9,2.5,1.8,5.1,2.2,7.7c0.6,3.3,0.4,6.7,0.3,10.1"/>
		<path class="st10" d="M143.1,1009c-2.7-0.3-4.5,2.6-5.6,5c-1.8,3.8-3.7,7.6-5.5,11.4"/>
		<path class="st10" d="M193.6,954.5c-0.4,2.6,1.3,6.4,2.6,8.8"/>
		<path class="st10" d="M173.6,970.1c0.8,1.7,2.3,3.8,4.6,5.1"/>
		<path class="st10" d="M133.7,916.6c5.9,7.8,13.5,4.6,14.4,3.2"/>
		<path class="st10" d="M128.8,946.6c2.2,2.2,6.5,4.8,12.6,3"/>
		<path class="st10" d="M74.3,1016.9c3.6-1.4,7.2-2.9,10.8-4.3c3.9-1.5,7.8-3.1,11.9-4"/>
		<path class="st10" d="M208.5,1020.8c-1,1.8-1.8,3.8-2.3,5.8"/>
		<path class="st10" d="M190.7,1013c-0.1,2.1-0.2,4.2-0.1,6.3c0.4,0.1,0.8,0.1,1.2,0.2"/>
		<path class="st10" d="M42,1037.2c1.7,4.8,1.9,9.8,0.4,14.6"/>
		<path class="st10" d="M79.4,927.6c2.6,0,6,0,8.8-1.6"/>
		<path class="st10" d="M83.1,955.7c2.9,0,6.9,0,10.1-1.6"/>
	</g>
</g>
<rect x="275.5" y="915.6" class="st1" width="49.8" height="49.8"/>
<rect x="276.3" y="982.8" class="st11" width="49.8" height="49.8"/>
<rect x="275.5" y="1050.1" class="st9" width="49.8" height="49.8"/>
<rect x="275.5" y="1116.5" class="st12" width="49.8" height="49.8"/>
<rect x="342.3" y="924.4" class="st13" width="127.6" height="33.5"/>
<text transform="matrix(1 0 0 1 342.3389 948.0034)" class="st1 st14 st15">#580000</text>
<rect x="342.3" y="991" class="st13" width="127.6" height="33.5"/>
<text transform="matrix(1 0 0 1 342.3389 1014.583)" class="st14 st15">#000000</text>
<rect x="342.3" y="1058" class="st13" width="127.6" height="33.5"/>
<text transform="matrix(1 0 0 1 342.3389 1081.583)" class="st2 st14 st15">#FFFFFF</text>
<rect x="342.3" y="1125" class="st13" width="127.6" height="33.5"/>
<text transform="matrix(1 0 0 1 342.3389 1148.584)" class="st12 st14 st15">#606161</text>
</svg>
