<svg xmlns="http://www.w3.org/2000/svg" viewBox="0 0 512 381.57"><title>WG</title><g id="Layer_2" data-name="Layer 2"><g id="Layer_1-2" data-name="Layer 1"><path d="M282,381.57h0L158.12,0h85.15l82.19,255.73h0C309.24,300.38,297.08,336.92,282,381.57Z"/><path d="M123.83,381.57h0L0,0H85.14l82.19,255.73h0C151.11,300.38,139,336.92,123.83,381.57Z"/><path d="M496.66,273.37l0-.05-31-95.22h-22.4v0H423.69v0H381.28L395,220.28v0l.9,2.8h40v73.57c-3.52,2.05-10.07,5.14-13.77,6.86v0q-27.63,12.84-61.83,13.82C352.89,338.5,346,358.49,339,379.21c4,.18,8,.33,12.05.33A262.33,262.33,0,0,0,431.47,367c1.45-.46,2.85-1,4.27-1.46,2.23-.76,4.41-1.57,6.59-2.38l-.05-.14c3.83-1.44,8.24-3.22,12.62-5.09,4.21-1.72,8.36-3.57,12.42-5.65.92-.45,1.83-.9,2.67-1.33v-.05a193.23,193.23,0,0,0,42-30.6Z"/><path d="M386.29,0H324l-.95,0,.48,1.19L342,56.45c14.12,1,29.89,3.55,42.5,8.22h0c.94.35,1.85.75,2.78,1.12L408.61.08Z"/><path d="M408.93.08h-.32L387.24,65.79a146.65,146.65,0,0,1,50.11,33.42l.09-.1,1.95-3.59Z"/></g></g></svg>